<svg preserveAspectRatio="xMidYMid meet" viewBox="0 0 324.508 523.261" fill="none" xmlns="http://www.w3.org/2000/svg"><style>.vector-layer{fill:#F4F3EF;transition:fill 450ms ease,filter 450ms ease,opacity 450ms ease;cursor:pointer;} svg:hover .vector-layer{fill:#E9FAF3;} svg:has(.vector-layer:hover) .vector-layer:not(:hover){opacity:.45;filter:saturate(.72);} .vector-layer:hover{opacity:1;fill:#9FEFD4;filter:drop-shadow(0 0 10px rgba(159,239,212,.5));}</style>
<path class="vector-layer" id="Vector 6" fill-rule="evenodd" clip-rule="evenodd" d="M218.008 406.09C216.408 408.09 210.008 417.257 207.008 421.59L211.508 433.09L209.008 452.09C213.175 457.423 221.408 468.69 221.008 471.09C220.608 473.49 220.841 487.423 221.008 494.09L209.008 502.09L205.122 505.976L205.008 506.09L183.008 499.59L169.008 498.09L159.643 491.19L159.508 491.09L148.508 494.09L139.508 494.09L139.008 494.09L135.777 489.475L135.508 489.09L132.508 494.09L123.008 498.09L121.508 506.09L115.508 510.59L107.008 517.59L92.008 520.59C92.008 520.59 85.6438 523.177 80.3853 523.259C79.5556 523.272 78.7533 523.222 78.008 523.09C73.9035 522.364 71.8166 519.663 69.6545 516.864C67.7824 514.441 65.8527 511.944 62.508 510.59C58.462 508.952 55.7961 508.11 51.73 508.077C51.3366 508.074 50.9301 508.078 50.508 508.09C46.2941 508.21 40.008 510.59 40.008 510.59L39.7814 511.215C39.1584 509.232 38.5646 507.349 38.008 505.59C38.8078 503.99 34.342 496.257 32.008 492.59L14.508 489.59C14.508 489.59 9.00798 482.09 9.00798 474.59C9.00798 468.588 12.9689 466.941 14.9601 466.113C15.4572 465.906 15.8322 465.75 15.9924 465.59C19.0226 462.56 18.7824 457.321 18.5822 452.961C18.5529 452.315 18.5246 451.688 18.508 451.09C18.1437 450.362 19.3713 449.539 20.0646 449.022C20.3234 448.828 20.508 448.678 20.508 448.59C20.508 448.59 26.1857 444.182 27.508 440.09C28.3605 437.454 27.0129 435.147 25.7111 432.917C24.2951 430.491 22.9318 428.157 24.508 425.59C25.7511 423.567 27.8713 423.311 30.0021 423.055C32.1047 422.801 34.2179 422.547 35.508 420.59C37.8615 417.021 34.6681 414.588 31.1261 411.89C27.9806 409.493 24.5597 406.887 24.508 403.09C24.3918 394.48 29.3049 389.309 36.508 384.59C39.5685 382.585 43.0802 382.96 46.423 383.316C50.3566 383.736 54.0558 384.13 56.508 380.59C61.4445 373.467 59.6457 359.804 51.008 359.09C48.0363 358.844 46.2472 361.822 44.5861 364.587C42.8322 367.506 41.2209 370.189 38.508 368.59C37.0812 367.749 35.508 365.59 35.508 365.59C35.508 365.59 35.1261 365.275 34.7179 364.877C34.4631 364.628 34.1974 364.347 34.008 364.09C32.0353 361.421 32.5334 358.564 34.008 355.59C35.0304 353.528 38.0734 353.337 40.7267 353.171C43.5119 352.996 45.8683 352.848 45.008 350.59C44.4074 349.015 43.4074 348.353 42.1027 347.488C41.9113 347.361 41.7131 347.23 41.508 347.09C40.0666 346.109 38.6672 346.534 37.2736 346.957C34.8937 347.68 32.5314 348.398 30.008 342.09C30.008 335.09 41.508 323.59 41.508 323.59C42.842 319.257 44.1076 310.49 42.508 310.09C41.2951 309.787 37.7052 305.056 34.6593 301.042C33.6886 299.763 32.7736 298.557 32.008 297.59C27.675 296.924 19.008 294.59 19.008 294.59C19.008 293.79 20.508 284.424 20.508 280.09C20.508 277.716 22.9093 277.793 24.8342 277.855C26.422 277.906 27.6867 277.947 27.008 276.59C27.008 276.107 27.1017 275.68 27.1945 275.255C27.5822 273.48 27.9631 271.738 21.508 266.09C21.1271 265.757 20.0695 264.96 18.7785 263.987C16.3888 262.186 13.1984 259.78 12.008 258.59C12.008 258.59 10.508 242.09 1.50798 238.59C1.26775 236.167 1.94548 234.249 2.6115 232.367C3.34978 230.277 4.07341 228.232 3.50798 225.59C3.1945 224.126 2.45915 223.102 1.74138 222.103C0.910325 220.945 0.104661 219.822 0.00798144 218.09C-0.253737 213.375 6.00798 207.59 6.00798 207.59C6.00798 207.59 14.6447 196.754 15.008 190.59C15.1408 188.347 13.465 186.585 11.7609 184.795C10.3742 183.338 8.96892 181.861 8.50798 180.09C6.77947 173.449 7.25212 168.385 7.67693 163.836C8.00993 160.275 8.31365 157.03 7.50798 153.59C5.67497 145.757 2.40837 129.79 4.00798 128.59C6.00798 127.09 6.47868 127.067 7.50798 125.59C9.85173 122.226 7.50798 115.09 7.50798 115.09C7.50798 115.09 128.908 -22.1098 204.508 3.09031C280.109 28.2903 305.342 49.2569 308.508 56.5902C313.342 67.5902 322.408 90.3902 320.008 93.5902C317.609 96.7903 322.008 107.924 324.508 113.09L318.008 116.59L322.508 132.09L318.008 180.59L316.326 182.693L316.267 182.767L316.236 182.746L316.008 182.59C314.204 183.572 313.152 185.127 312.149 186.609C310.854 188.52 309.642 190.309 307.008 190.59C306.937 190.598 306.866 190.604 306.797 190.608C304.765 190.728 303.397 189.384 302.039 188.05C300.816 186.848 299.599 185.653 297.913 185.545C297.626 185.527 297.325 185.54 297.008 185.59C295.361 185.85 294.445 186.977 293.532 188.099C292.681 189.147 291.831 190.191 290.392 190.521C290.268 190.55 290.14 190.573 290.008 190.59C285.107 187.707 284.029 185.156 283.132 183.034C282.474 181.476 281.913 180.149 280.008 179.09C279.392 179.052 278.803 179.024 278.239 179.017C274.391 178.971 271.688 179.922 269.508 185.59C269.508 186.706 269.877 188.03 270.263 189.411C271.087 192.362 271.985 195.576 269.508 197.59C268.842 198.132 268.18 198.378 267.513 198.426C266.195 198.52 264.858 197.835 263.444 197.11C262.036 196.389 260.551 195.627 258.928 195.555C258.626 195.541 258.32 195.551 258.008 195.59C251.661 196.38 244.008 204.09 244.008 204.09C243.116 204.639 242.111 205.049 241.158 205.437C239.403 206.153 237.832 206.793 237.508 208.09C237.262 209.073 235.546 210.007 233.459 211.142C231.3 212.316 228.744 213.706 227.008 215.59C223.35 219.561 223.152 223.112 222.923 227.219C222.701 231.194 222.45 235.689 219.008 241.59C215.223 248.079 210.747 248.612 207.018 249.056C203.85 249.433 201.22 249.746 200.008 253.59C198.43 258.597 202.762 261.699 207.131 264.828C211.463 267.929 215.83 271.057 214.508 276.09C213.682 279.236 211.179 280.732 208.705 282.21C206.135 283.746 203.597 285.262 203.008 288.59C202.208 293.11 204.988 295.835 207.831 298.622C210.154 300.899 212.52 303.217 213.008 306.59C212.04 309.331 209.981 310.304 207.551 310.365C204.276 310.446 200.326 308.87 197.468 307.729C196.079 307.175 194.946 306.722 194.276 306.615C194.176 306.599 194.087 306.59 194.008 306.59C191.508 306.59 190.008 315.09 190.008 315.09C190.008 315.09 178.425 325.338 181.508 332.09C184.16 337.898 196.508 338.59 196.508 338.59L198.508 349.09L209.008 358.59C209.008 358.59 210.096 371.453 211.508 379.59C213.329 390.089 218.008 406.09 218.008 406.09Z"/>
</svg>
