<svg preserveAspectRatio="xMidYMid meet" viewBox="0 0 432.928 692.319" fill="none" xmlns="http://www.w3.org/2000/svg"><style>.vector-layer{fill:#F0B100;transition:fill 450ms ease,filter 450ms ease,opacity 450ms ease;cursor:pointer;} svg:hover .vector-layer{fill:#F7C93E;} svg:has(.vector-layer:hover) .vector-layer:not(:hover){opacity:.45;filter:saturate(.72);} .vector-layer:hover{opacity:1;fill:#FFD45A;filter:drop-shadow(0 0 10px rgba(255,212,90,.55));}</style><path class="vector-layer" id="Vector 9" fill-rule="evenodd" clip-rule="evenodd" d="M299.5 510.59H299C299 510.59 305.286 508.21 309.5 508.09C309.746 508.083 309.986 508.079 310.222 508.077C314.288 508.11 316.954 508.952 321 510.59C324.345 511.944 326.275 514.441 328.147 516.864C330.309 519.663 332.396 522.364 336.5 523.09C337.246 523.222 338.048 523.272 338.878 523.259C344.223 523.345 351 520.59 351 520.59L366 517.59L374.5 510.59L380.5 506.09L382 498.09L391.5 494.09L394.269 489.475L397.5 494.09H398H407H407.5L418.135 491.19L427.5 498.09L441.5 499.59L463.5 506.09L463.614 505.976L464 506.09L468 502.09L480 494.09C479.833 487.423 479.6 473.49 480 471.09C480.4 468.69 472.167 457.423 468 452.09L470.5 433.09L466 421.59C469 417.257 475.4 408.09 477 406.09C477 406.09 472.321 390.089 470.5 379.59C469.088 371.453 468 358.59 468 358.59L457.5 349.09L455.5 338.59C455.5 338.59 443.152 337.898 440.5 332.09C437.417 325.338 449 315.09 449 315.09C449 315.09 450.408 307.114 452.768 306.615C453.439 306.722 454.569 307.174 455.958 307.728V307.728V307.728V307.728C458.816 308.869 462.768 310.446 466.043 310.365C468.689 310.428 470.967 309.517 472 306.59C471.512 303.218 469.146 300.899 466.823 298.622V298.622C463.981 295.836 461.2 293.11 462 288.59C462.589 285.262 465.126 283.746 467.697 282.21V282.21C470.17 280.733 472.674 279.236 473.5 276.09C474.822 271.057 470.455 267.929 466.123 264.828C461.754 261.699 457.422 258.597 459 253.59C460.212 249.746 462.842 249.433 466.01 249.056C469.739 248.612 474.215 248.079 478 241.59C481.442 235.689 481.693 231.194 481.915 227.219C482.144 223.112 482.342 219.561 486 215.59C487.736 213.706 490.292 212.316 492.451 211.142C494.538 210.007 496.254 209.073 496.5 208.09C496.824 206.793 498.394 206.153 500.15 205.437V205.437C501.102 205.05 502.108 204.639 503 204.09C503 204.09 510.653 196.38 517 195.59C517.081 195.58 517.161 195.572 517.241 195.566C517.301 195.561 517.361 195.557 517.42 195.555C519.044 195.627 520.529 196.389 521.936 197.11C523.35 197.835 524.687 198.52 526.006 198.426C526.842 198.483 527.668 198.267 528.5 197.59C530.977 195.576 530.079 192.362 529.255 189.411C528.869 188.03 528.5 186.706 528.5 185.59C530.585 180.17 533.146 179.064 536.731 179.017C537.295 179.024 537.884 179.052 538.5 179.09C540.405 180.149 540.966 181.476 541.624 183.034C542.521 185.156 543.599 187.707 548.5 190.59C548.574 190.581 548.646 190.569 548.717 190.556C548.774 190.545 548.829 190.534 548.884 190.521C548.922 190.544 548.961 190.567 549 190.59C550.678 190.37 551.6 189.237 552.524 188.099C553.437 186.977 554.353 185.85 556 185.59C556.138 185.568 556.273 185.554 556.406 185.545C558.091 185.653 559.307 186.847 560.53 188.048V188.048C561.888 189.382 563.257 190.728 565.289 190.608C565.517 190.622 565.754 190.617 566 190.59C568.633 190.309 569.845 188.52 571.14 186.609V186.609C572.092 185.204 573.088 183.732 574.728 182.746L574.759 182.767L574.818 182.693C574.878 182.658 574.939 182.624 575 182.59L575.259 182.767L575.308 182.8C575.363 182.838 575.418 182.875 575.473 182.912C586.885 190.636 590.94 190.247 596.205 189.742C599.48 189.428 603.225 189.069 609.5 190.59C612.113 191.494 614.538 192.247 616.831 192.959V192.959V192.959C625.046 195.508 631.577 197.536 639 204.09C642.305 207.008 643.972 210.207 645.614 213.359C647.406 216.799 649.17 220.184 653 223.09C654.944 224.566 656.92 225.188 658.83 225.789V225.789C661.224 226.543 663.513 227.263 665.5 229.59C668.751 233.396 670 237.59 670 241.59C666.81 245.135 666.283 254.663 665.962 260.477C665.83 262.864 665.732 264.625 665.5 265.09C664.7 266.69 656.667 276.924 652 282.09C652 286.09 656 296.59 660.5 299.09C663.549 298.999 664.7 297.008 665.851 295.017V295.017V295.017C666.836 293.311 667.823 291.604 670 291.09C673 291.59 683 294.59 686.5 301.09C687.733 303.826 687.312 305.968 686.845 308.337V308.337C686.462 310.283 686.049 312.384 686.5 315.09C689.213 316.64 694.5 315.09 694.5 315.09C694.5 315.09 697.5 327.59 703 338.59C706.068 344.727 705.246 346.662 704.18 349.171V349.171C703.335 351.158 702.337 353.507 703 358.59C703.92 365.64 705.59 370.059 706.746 373.115V373.115V373.115V373.115C707.474 375.041 708 376.431 708 377.59C708 380.59 698.5 387.09 698.5 387.09C698.5 387.09 695.5 399.59 684.5 403.09C682.369 403.768 680.5 408.09 680.5 409.59C680.5 410.095 679.622 410.487 678.529 410.975V410.975C677.022 411.648 675.104 412.505 674.5 414.09C672.938 418.191 676.116 423.792 680.5 423.59C682.827 423.483 683.933 421.984 685.217 420.242V420.242C685.614 419.704 686.028 419.141 686.5 418.59C688.5 416.257 694.5 419.59 694.5 421.59C694.5 422.341 693.363 423.378 691.948 424.67V424.67V424.67V424.67C689.593 426.819 686.463 429.676 686.5 433.09C686.522 435.2 687.006 436.937 687.494 438.685V438.685L687.496 438.695C688.037 440.637 688.581 442.593 688.5 445.09C688.419 447.591 687.647 450.431 687.088 452.489V452.489L687.083 452.508C686.755 453.712 686.5 454.647 686.5 455.09C686.5 455.09 688.833 460.257 690 462.09C690.472 462.831 690.475 464.481 690.478 466.301V466.301C690.482 468.986 690.488 472.043 692 473.09L698.5 477.59C692.5 481.09 680.6 489.19 679 491.59C678.147 492.87 679.198 496.623 680.441 501.06V501.06C681.53 504.944 682.767 509.357 683 513.09C681.16 516.648 678.959 518.431 676.559 520.377V520.377L676.525 520.405C675.863 520.94 675.188 521.489 674.5 522.09C671.3 524.89 664.833 531.923 662 535.09C660.687 536.558 663.741 538.832 667.779 541.837V541.837C672.45 545.313 678.438 549.77 680.5 555.09C682.368 559.911 683 568.09 683 568.09L686.5 576.59C686.5 576.59 682.5 580.59 682.5 591.59C684.321 613.901 681.167 615.48 675.68 618.227V618.227C675.142 618.496 674.58 618.778 674 619.09C667.464 622.61 662.57 617.66 657.096 612.122C651.683 606.647 645.701 600.596 637 601.59C632.674 602.085 632.424 603.263 632.079 604.889C631.909 605.69 631.716 606.6 631 607.59C629.691 609.402 626.302 609.453 623.06 609.502C620.935 609.534 618.872 609.565 617.5 610.09C616.7 611.889 614.698 613.338 612.775 614.728C609.889 616.816 607.183 618.773 609 621.59C609.912 623.004 611.179 623.383 612.539 623.791C613.51 624.081 614.528 624.386 615.5 625.09C617.611 626.621 617.719 627.299 617.834 628.028C617.945 628.731 618.064 629.481 620 631.09C626.372 636.386 634.574 636.191 642.842 635.995C650.668 635.809 658.554 635.621 665 640.09C669.376 643.124 670.432 644.948 671.968 647.604V647.604C673.194 649.723 674.729 652.375 678.5 656.59C679.699 660.967 678.945 663.905 678.054 667.372V667.372V667.372V667.372C677.088 671.141 675.959 675.541 677 683.09C677.828 683.676 678.993 683.95 680.161 684.223V684.223C682.549 684.783 684.948 685.345 684.5 688.59C683.833 693.423 682.1 700.79 680.5 703.59C679.843 704.74 680.43 706.651 681.061 708.705C681.965 711.65 682.959 714.888 680.5 716.59C678.654 717.869 676.309 717.35 674.335 716.913V716.913C673.219 716.667 672.222 716.446 671.5 716.59C669.5 716.99 654.333 734.757 653 737.09C651.667 739.423 650 753.59 650 753.59C650 753.59 643.653 772.686 650 781.59C655.015 781.59 677.489 782.837 683.31 785.71C683.873 785.988 684.279 786.282 684.5 786.59C684.603 786.733 684.716 786.904 684.839 787.102C687.946 792.088 697.357 813.958 693.5 827.59C690.544 838.038 677.5 843.59 677.5 843.59C677.5 843.59 679.72 850.945 677 852.59C675.496 853.5 674 853.09 674 853.09L665 859.59C665 859.59 657.564 858.527 653 859.59C648.322 860.68 644.5 863.09 644.5 863.09C644.5 863.09 645.337 867.612 644.5 869.59C639.5 871.59 630 873.59 619.5 865.09C615.604 861.936 612.812 859.779 610.535 858.021L610.526 858.014C605.594 854.204 603.084 852.265 597 846.09C588.181 837.14 584.5 825.59 584.5 825.59L583.5 784.09C583.5 784.09 576.5 765.09 570 764.09C540.5 769.59 517 767.09 517 767.09C517 767.09 508.446 769.82 504 769.59C498 764.09 489.5 761.09 489.5 761.09L491.5 756.59C491.288 754.26 490.913 751.963 490.53 749.619C489.707 744.587 488.849 739.34 489.5 733.09C490.381 724.637 493.548 718.234 496.63 712.004V712.004L496.637 711.989C498.012 709.211 499.369 706.467 500.5 703.59C502.541 698.396 499.245 695.426 495.73 692.26C492.93 689.737 489.99 687.089 489.5 683.09C489.026 679.231 491.558 674.953 493.775 671.206V671.206C496.474 666.647 498.708 662.871 494.5 661.59C486.833 659.257 471.2 654.59 470 654.59C468.8 654.59 469.5 650.257 470 648.09C470.5 645.923 466.28 642.364 463 643.09C461.514 643.419 460.932 644.5 460.304 645.667C459.849 646.514 459.368 647.407 458.5 648.09C448.825 655.708 428 640.09 428 640.09C428 640.09 424.993 630.068 420 626.09C419.719 625.867 419.454 625.653 419.201 625.45C415.488 622.463 414.522 621.686 407.5 623.09C404.006 623.789 401.389 624.882 398.928 625.911V625.911V625.911V625.911C395.598 627.302 392.549 628.575 388 628.59C381.604 628.611 372 625.09 372 625.09H351C350.333 623.923 348.7 621.59 347.5 621.59H338.5C337.5 630.59 318.5 643.09 318.5 643.09C318.5 643.09 309.016 643.941 302.5 644.09C301.329 644.117 299 645.59 299 645.59C299 645.59 298.37 636.174 294 633.59C293.04 633.023 292.062 633.013 291.113 633.004C290.009 632.993 288.945 632.983 288 632.09C285.968 630.171 286.5 625.09 286.5 625.09L278 618.59L275.072 607.364C275.23 607.293 275.378 607.223 275.517 607.154L275.5 607.09V573.59L278.5 561.09L283.5 555.59V550.59L291.5 530.09V520.59L297.5 516.09L299.273 511.215L299.5 510.59Z"/></svg>