<svg preserveAspectRatio="xMidYMid meet" viewBox="0 0 506.527 730.448" fill="none" xmlns="http://www.w3.org/2000/svg"><style>.vector-layer{fill:#F8F6ED;transition:fill 450ms ease,filter 450ms ease,opacity 450ms ease;cursor:pointer;} svg:hover .vector-layer{fill:#DDF5EC;} svg:has(.vector-layer:hover) .vector-layer:not(:hover){opacity:.45;filter:saturate(.72);} .vector-layer:hover{opacity:1;fill:#74DFC0;filter:drop-shadow(0 0 10px rgba(116,223,192,.5));}</style>
<path class="vector-layer" id="Vector 7" fill-rule="evenodd" clip-rule="evenodd" d="M0.0273438 93.9476L2.02734 91.4476C2.86035 75.781 4.62695 44.2476 5.02734 43.4476C5.42773 42.6475 3.19434 34.1142 2.02734 29.9476L5.02734 27.9476L38.0273 0.947599C42.8604 -0.219027 56.2275 -1.25235 71.0273 3.9476C89.5273 10.4476 103.527 24.9476 103.527 26.4476C103.527 27.9476 110.527 32.4476 117.027 29.9476C121.826 28.1019 119.539 32.5246 116.403 38.5877C115.292 40.7369 114.074 43.0923 113.027 45.4476C123.027 53.6142 146.027 68.9476 146.027 68.9476C146.027 68.9476 153.694 67.281 156.027 66.9476C158.36 66.6142 184.915 71.2817 191.527 85.4476C192.477 87.4823 192.707 89.2769 192.935 91.0534C193.178 92.9489 193.418 94.8239 194.527 96.9476C196.95 101.586 200.826 103.207 204.88 104.901C208.212 106.294 211.664 107.738 214.527 110.948C217.799 114.616 219.703 119.402 221.355 123.552C222.846 127.297 224.13 130.525 226.027 131.948C230.027 134.948 238.428 141.048 240.027 141.448C241.627 141.848 244.694 145.614 246.027 147.448L251.027 154.448C251.027 154.448 256.898 155.464 260.027 157.448C268.478 162.806 267.527 181.948 267.527 181.948C271.194 183.781 278.728 188.348 279.527 191.948C280.148 194.743 280.106 203.45 280.057 213.757C280.042 216.722 280.027 219.82 280.027 222.948C282.74 225.452 288.066 229.611 294.115 234.335C302.559 240.928 312.41 248.622 318.527 254.448C324.695 267.418 324.308 276.643 323.027 290.948C322.944 291.88 322.865 292.796 322.787 293.696C321.596 307.402 320.719 317.495 311.027 327.948C308.229 330.966 304.848 332.188 301.581 333.369C297.669 334.783 293.92 336.138 291.527 340.448C288.593 345.733 291.16 350.585 293.769 355.514C296.285 360.268 298.839 365.093 296.527 370.448C295.457 372.926 293.869 374.422 292.285 375.915C290.684 377.425 289.085 378.932 288.027 381.448C289.027 383.448 290.027 388.948 286.527 393.448C285.459 394.821 285.886 395.983 286.337 397.214C286.747 398.333 287.178 399.507 286.527 400.948C285.29 403.687 282.503 404.153 279.556 404.645C276.811 405.103 273.928 405.585 272.027 407.948C270.527 417.448 273.027 432.948 273.027 432.948C273.027 432.948 290.527 430.948 298.027 429.448C303.522 428.348 312.347 419.465 316.985 414.794C318.678 413.091 319.813 411.948 320.027 411.948C320.14 411.948 320.46 411.828 320.959 411.641C324.901 410.167 339.987 404.525 351.527 420.948C361.928 435.748 370.86 452.114 374.027 458.448C377.027 458.781 383.827 458.248 387.027 453.448C387.697 452.442 388.27 451.535 388.798 450.698C391.42 446.54 392.952 444.11 400.027 439.948C410.251 432.391 412.571 435.109 414.366 437.21C414.59 437.473 414.806 437.726 415.027 437.948C417.027 439.948 423.527 444.948 426.527 446.948C429.527 448.948 439.527 458.448 440.527 468.948C441.327 477.348 458.86 489.448 467.527 494.448C471.194 496.948 478.527 502.348 478.527 503.948C478.527 504.898 477.399 505.961 476.321 506.976C475.131 508.097 474.002 509.16 474.527 509.948C475.088 510.788 480.751 519.691 485.983 527.928L492.027 537.448C492.027 537.448 500.027 537.448 504.027 538.948V559.448L506.527 563.448C506.527 563.448 500.294 570.912 496.027 575.448C483.503 588.76 460.527 605.948 460.527 605.948C460.527 605.948 460.623 609.911 460.527 612.448C460.298 618.546 458.527 627.948 458.527 627.948C458.527 627.948 466.019 625.469 469.527 627.948C470.891 628.91 471.297 630.204 471.715 631.533C472.085 632.711 472.465 633.918 473.527 634.948C474.499 635.89 475.512 636.292 476.524 636.693C477.54 637.096 478.555 637.499 479.527 638.448C485.258 644.038 479.527 658.948 479.527 658.948C479.527 658.948 475.027 663.448 472.027 672.448C472.027 675.414 472.617 678.337 473.285 681.644C473.968 685.025 474.731 688.808 475.027 693.448C475.027 693.448 472.235 698.018 469.527 699.948C463.509 698.262 457.412 695.224 452.522 692.788C447.258 690.164 443.392 688.238 442.527 689.448C441.099 690.06 440.087 691.372 439.117 692.629C437.711 694.451 436.395 696.158 434.027 695.448C432.896 695.108 431.691 694.545 430.418 693.95C427.188 692.441 423.523 690.729 419.527 691.948C415.792 693.087 414.027 696.948 414.027 696.948C414.027 696.948 399.527 696.948 395.527 691.948C394.737 690.96 385.194 687.948 383.027 687.448C383.027 687.448 374.027 687.448 370.027 682.448C366.027 677.448 350.627 696.748 351.027 701.948C347.86 702.626 345.001 702.691 342.68 702.743C339.869 702.807 337.849 702.852 337.027 703.948C336.079 705.212 326.027 715.948 324.027 715.948C322.027 715.948 318.027 726.448 318.027 728.948C318.027 730.478 310.81 730.447 305.104 730.423C303.352 730.415 301.741 730.409 300.527 730.448C300.027 727.448 298.127 720.748 294.527 717.948C292.815 716.616 289.945 715.429 286.826 714.139C281.746 712.038 276.006 709.665 273.527 705.948C272.316 704.131 270.647 702.131 268.825 699.948C264.628 694.92 259.619 688.92 257.527 681.948C254.407 678.347 250.76 676.466 247.897 674.989C244.797 673.39 242.618 672.266 243.027 669.948C244.527 661.448 231.027 655.448 229.027 654.948C227.428 654.548 223.694 649.114 222.027 646.448C222.027 646.448 210.646 651.21 204.027 655.448C198.633 658.901 191.027 665.448 191.027 665.448C187.027 662.614 176.127 659.548 160.527 667.948C155.527 669.948 151.027 669.948 138.027 667.948C127.627 666.347 118.027 668.614 115.027 670.448C112.027 672.281 109.527 699.948 109.527 699.948L109.366 699.959C109.243 699.762 109.13 699.591 109.027 699.448C106.527 695.948 80.0273 694.448 74.5273 694.448C68.1807 685.543 74.5273 666.448 74.5273 666.448C74.5273 666.448 76.1943 652.281 77.5273 649.948C78.8604 647.614 94.0273 629.848 96.0273 629.448C96.749 629.303 97.7461 629.524 98.8613 629.771C100.836 630.207 103.181 630.726 105.027 629.448C107.486 627.745 106.492 624.507 105.588 621.562C104.957 619.509 104.37 617.598 105.027 616.448C106.627 613.648 108.36 606.281 109.027 601.448C109.476 598.202 107.076 597.64 104.688 597.081C103.521 596.807 102.355 596.534 101.527 595.948C100.486 588.397 101.614 584.001 102.581 580.232C103.472 576.764 104.227 573.826 103.027 569.448C99.2539 565.23 97.7217 562.581 96.4951 560.461C94.959 557.805 93.9033 555.981 89.5273 552.948C83.0811 548.478 75.1953 548.666 67.3691 548.852C59.1016 549.049 50.8994 549.244 44.5273 543.948C42.5918 542.338 42.4727 541.588 42.3613 540.885C42.2461 540.157 42.1387 539.479 40.0273 537.948C39.0557 537.243 38.0371 536.938 37.0664 536.648C35.7061 536.241 34.4395 535.862 33.5273 534.448C31.71 531.631 34.416 529.674 37.3027 527.586C39.2256 526.195 41.2275 524.747 42.0273 522.948C43.3994 522.422 45.4619 522.391 47.5869 522.359C50.8291 522.311 54.2188 522.26 55.5273 520.448C56.2432 519.457 56.4365 518.547 56.6064 517.746C56.9512 516.12 57.2012 514.942 61.5273 514.448C70.2285 513.453 76.21 519.504 81.623 524.98C87.0977 530.518 91.9912 535.467 98.5273 531.948C99.1084 531.635 99.6689 531.354 100.207 531.084C105.694 528.337 108.849 526.758 107.027 504.448C107.027 493.448 111.027 489.448 111.027 489.448L107.527 480.948C107.527 480.948 106.896 472.768 105.027 467.948C102.965 462.627 96.9775 458.171 92.3066 454.694C88.2686 451.689 85.2139 449.416 86.5273 447.948C89.3604 444.781 95.8271 437.748 99.0273 434.948C99.7266 434.336 100.414 433.779 101.085 433.235C103.486 431.289 105.688 429.505 107.527 425.948C107.294 422.213 106.058 417.803 104.969 413.918C103.726 409.48 102.675 405.727 103.527 404.448C105.127 402.048 117.027 393.948 123.027 390.448L116.527 385.948C115.015 384.9 115.01 381.844 115.005 379.158C115.002 377.338 114.999 375.688 114.527 374.948C113.36 373.114 111.027 367.948 111.027 367.948C111.027 367.505 111.282 366.569 111.61 365.365C112.171 363.306 112.946 360.459 113.027 357.948C113.108 355.447 112.562 353.489 112.021 351.544C111.534 349.795 111.05 348.058 111.027 345.948C110.99 342.532 114.118 339.678 116.473 337.53C117.89 336.237 119.027 335.199 119.027 334.448C119.027 332.448 113.027 329.114 111.027 331.448C110.556 331.998 110.143 332.559 109.746 333.097C108.461 334.84 107.355 336.34 105.027 336.448C100.644 336.65 97.4648 331.048 99.0273 326.948C99.6309 325.363 101.547 324.507 103.054 323.834C104.148 323.345 105.027 322.953 105.027 322.448C105.027 320.948 106.896 316.626 109.027 315.948C120.027 312.448 123.027 299.948 123.027 299.948C123.027 299.948 132.527 293.448 132.527 290.448C132.527 289.287 132.003 287.902 131.273 285.974C130.118 282.918 128.447 278.498 127.527 271.448C126.864 266.364 127.862 264.016 128.707 262.028C129.773 259.52 130.596 257.585 127.527 251.448C122.027 240.448 119.027 227.948 119.027 227.948C119.027 227.948 113.74 229.498 111.027 227.948C110.576 225.241 110.989 223.141 111.372 221.194C111.839 218.826 112.261 216.683 111.027 213.948C107.527 207.448 97.5273 204.448 94.5273 203.948C92.3496 204.462 91.3643 206.167 90.3789 207.873C89.2275 209.865 88.0771 211.857 85.0273 211.948C80.5273 209.448 76.5273 198.948 76.5273 194.948C81.1943 189.781 89.2275 179.548 90.0273 177.948C90.2598 177.482 90.3574 175.721 90.4893 173.335C90.8105 167.52 91.3369 157.993 94.5273 154.448C94.5273 150.448 93.2783 146.253 90.0273 142.448C88.04 140.12 85.752 139.4 83.3574 138.647C81.4482 138.046 79.4717 137.423 77.5273 135.948C73.6973 133.041 71.9336 129.656 70.1416 126.217C68.499 123.064 66.832 119.865 63.5273 116.948C56.1035 110.393 49.5762 108.367 41.3613 105.817C39.0674 105.105 36.6416 104.352 34.0273 103.448C27.752 101.926 24.0078 102.285 20.7324 102.599C15.4678 103.104 11.4121 103.493 0 95.7695L0.0273438 93.9476Z"/>
</svg>
