<svg preserveAspectRatio="xMidYMid meet" viewBox="0 0 1081.5 1033.96" fill="none" xmlns="http://www.w3.org/2000/svg"><style>.map-layer{transition:filter 560ms cubic-bezier(.22,1,.36,1),opacity 520ms cubic-bezier(.22,1,.36,1),transform 560ms cubic-bezier(.22,1,.36,1);cursor:pointer;transform-box:fill-box;transform-origin:center;will-change:filter,transform;} .layer-1{fill:#F4F3EF;} .layer-2{fill:#F8F6ED;} .layer-3{fill:#EFEEE8;} .layer-4{fill:#E8ECE9;} .layer-5{fill:#F0B100;} svg.has-active .map-layer{opacity:1;filter:none;} .map-layer.is-active{opacity:1;transform:translateY(-1px) scale(1.01);filter:drop-shadow(0 0 8px rgba(11,40,31,.28));} .layer-5.is-active{filter:drop-shadow(0 0 10px rgba(11,40,31,.3));}</style>
<g id="Frame 7519">
<path id="Vector 6" class="map-layer layer-1" fill-rule="evenodd" clip-rule="evenodd" d="M476.5 406.09C474.901 408.09 468.5 417.257 465.5 421.59L470 433.09L467.5 452.09C471.667 457.423 479.901 468.69 479.5 471.09C479.1 473.49 479.333 487.423 479.5 494.09L467.5 502.09L463.614 505.976L463.5 506.09L441.5 499.59L427.5 498.09L418.135 491.19L418 491.09L407 494.09L398 494.09L397.5 494.09L394.269 489.475L394 489.09L391 494.09L381.5 498.09L380 506.09L374 510.59L365.5 517.59L350.5 520.59C350.5 520.59 344.136 523.177 338.878 523.259C338.048 523.272 337.246 523.222 336.5 523.09C332.396 522.364 330.309 519.663 328.147 516.864C326.275 514.441 324.345 511.944 321 510.59C316.954 508.952 314.288 508.11 310.222 508.077C309.829 508.074 309.422 508.078 309 508.09C304.786 508.21 298.5 510.59 298.5 510.59L298.274 511.215C297.651 509.232 297.057 507.349 296.5 505.59C297.3 503.99 292.834 496.257 290.5 492.59L273 489.59C273 489.59 267.5 482.09 267.5 474.59C267.5 468.588 271.461 466.941 273.452 466.113C273.949 465.906 274.324 465.75 274.485 465.59C277.515 462.56 277.275 457.321 277.074 452.961C277.045 452.315 277.017 451.688 277 451.09C276.636 450.362 277.863 449.539 278.557 449.022C278.816 448.828 279 448.678 279 448.59C279 448.59 284.678 444.182 286 440.09C286.853 437.454 285.505 435.147 284.203 432.917C282.787 430.491 281.424 428.157 283 425.59C284.243 423.567 286.363 423.311 288.494 423.055C290.597 422.801 292.71 422.547 294 420.59C296.354 417.021 293.16 414.588 289.618 411.89C286.473 409.493 283.052 406.887 283 403.09C282.884 394.48 287.797 389.309 295 384.59C298.061 382.585 301.572 382.96 304.915 383.316C308.849 383.736 312.548 384.13 315 380.59C319.937 373.467 318.138 359.804 309.5 359.09C306.528 358.844 304.739 361.822 303.078 364.587C301.324 367.506 299.713 370.189 297 368.59C295.573 367.749 294 365.59 294 365.59C294 365.59 293.618 365.275 293.21 364.877C292.955 364.628 292.69 364.347 292.5 364.09C290.528 361.421 291.026 358.564 292.5 355.59C293.523 353.528 296.566 353.337 299.219 353.171C302.004 352.996 304.361 352.848 303.5 350.59C302.9 349.015 301.9 348.353 300.595 347.488C300.403 347.361 300.205 347.23 300 347.09C298.559 346.109 297.159 346.534 295.766 346.957C293.386 347.68 291.024 348.398 288.5 342.09C288.5 335.09 300 323.59 300 323.59C301.334 319.257 302.6 310.49 301 310.09C299.787 309.787 296.197 305.056 293.152 301.042C292.181 299.763 291.266 298.557 290.5 297.59C286.167 296.924 277.5 294.59 277.5 294.59C277.5 293.79 279 284.424 279 280.09C279 277.716 281.402 277.793 283.326 277.855C284.914 277.906 286.179 277.947 285.5 276.59C285.5 276.107 285.594 275.68 285.687 275.255C286.074 273.48 286.455 271.738 280 266.09C279.619 265.757 278.562 264.96 277.271 263.987C274.881 262.186 271.691 259.78 270.5 258.59C270.5 258.59 269 242.09 260 238.59C259.76 236.167 260.438 234.249 261.104 232.367C261.842 230.277 262.566 228.232 262 225.59C261.687 224.126 260.951 223.102 260.234 222.103C259.403 220.945 258.597 219.822 258.5 218.09C258.238 213.375 264.5 207.59 264.5 207.59C264.5 207.59 273.137 196.754 273.5 190.59C273.633 188.347 271.957 186.585 270.253 184.795C268.866 183.338 267.461 181.861 267 180.09C265.272 173.449 265.744 168.385 266.169 163.836C266.502 160.275 266.806 157.03 266 153.59C264.167 145.757 260.901 129.79 262.5 128.59C264.5 127.09 264.971 127.067 266 125.59C268.344 122.226 266 115.09 266 115.09C266 115.09 387.401 -22.1098 463 3.09031C538.601 28.2903 563.834 49.2569 567 56.5902C571.834 67.5902 580.901 90.3902 578.5 93.5902C576.101 96.7903 580.5 107.924 583 113.09L576.5 116.59L581 132.09L576.5 180.59L574.818 182.693L574.759 182.767L574.728 182.746L574.5 182.59C572.696 183.572 571.644 185.127 570.641 186.609C569.346 188.52 568.134 190.309 565.5 190.59C565.429 190.598 565.358 190.604 565.289 190.608C563.257 190.728 561.889 189.384 560.531 188.05C559.308 186.848 558.091 185.653 556.406 185.545C556.118 185.527 555.817 185.54 555.5 185.59C553.853 185.85 552.937 186.977 552.025 188.099C551.173 189.147 550.323 190.191 548.884 190.521C548.76 190.55 548.633 190.573 548.5 190.59C543.599 187.707 542.521 185.156 541.624 183.034C540.966 181.476 540.405 180.149 538.5 179.09C537.884 179.052 537.295 179.024 536.731 179.017C532.883 178.971 530.18 179.922 528 185.59C528 186.706 528.369 188.03 528.755 189.411C529.579 192.362 530.477 195.576 528 197.59C527.335 198.132 526.672 198.378 526.006 198.426C524.687 198.52 523.35 197.835 521.936 197.11C520.529 196.389 519.044 195.627 517.42 195.555C517.119 195.541 516.812 195.551 516.5 195.59C510.154 196.38 502.5 204.09 502.5 204.09C501.609 204.639 500.603 205.049 499.651 205.437C497.895 206.153 496.324 206.793 496 208.09C495.754 209.073 494.038 210.007 491.951 211.142C489.792 212.316 487.236 213.706 485.5 215.59C481.842 219.561 481.644 223.112 481.415 227.219C481.194 231.194 480.943 235.689 477.5 241.59C473.715 248.079 469.239 248.612 465.51 249.056C462.342 249.433 459.712 249.746 458.5 253.59C456.922 258.597 461.254 261.699 465.623 264.828C469.955 267.929 474.322 271.057 473 276.09C472.174 279.236 469.671 280.732 467.197 282.21C464.627 283.746 462.089 285.262 461.5 288.59C460.7 293.11 463.481 295.835 466.323 298.622C468.647 300.899 471.012 303.217 471.5 306.59C470.533 309.331 468.473 310.304 466.043 310.365C462.768 310.446 458.818 308.87 455.96 307.729C454.571 307.175 453.439 306.722 452.768 306.615C452.668 306.599 452.579 306.59 452.5 306.59C450 306.59 448.5 315.09 448.5 315.09C448.5 315.09 436.917 325.338 440 332.09C442.653 337.898 455 338.59 455 338.59L457 349.09L467.5 358.59C467.5 358.59 468.588 371.453 470 379.59C471.821 390.089 476.5 406.09 476.5 406.09Z" />
<path id="Vector 7" class="map-layer layer-2" fill-rule="evenodd" clip-rule="evenodd" d="M575 181.09L577 178.59C577.833 162.924 579.6 131.39 580 130.59C580.4 129.79 578.167 121.257 577 117.09L580 115.09L613 88.0902C617.833 86.9236 631.2 85.8902 646 91.0902C664.5 97.5902 678.5 112.09 678.5 113.59C678.5 115.09 685.5 119.59 692 117.09C696.799 115.244 694.512 119.667 691.376 125.73C690.265 127.879 689.047 130.235 688 132.59C698 140.757 721 156.09 721 156.09C721 156.09 728.667 154.424 731 154.09C733.333 153.757 759.888 158.424 766.5 172.59C767.449 174.625 767.68 176.42 767.907 178.196C768.15 180.092 768.391 181.967 769.5 184.09C771.923 188.728 775.799 190.349 779.853 192.044C783.185 193.437 786.637 194.88 789.5 198.09C792.771 201.759 794.676 206.544 796.328 210.695C797.818 214.439 799.103 217.667 801 219.09C805 222.09 813.4 228.19 815 228.59C816.6 228.99 819.667 232.757 821 234.59L826 241.59C826 241.59 831.871 242.606 835 244.59C843.45 249.948 842.5 269.09 842.5 269.09C846.167 270.924 853.7 275.49 854.5 279.09C855.121 281.886 855.079 290.592 855.029 300.9C855.015 303.865 855 306.963 855 310.09C857.713 312.595 863.039 316.754 869.088 321.478C877.531 328.071 887.383 335.764 893.5 341.59C899.668 354.561 899.28 363.785 898 378.09C897.917 379.023 897.838 379.938 897.76 380.838C896.568 394.544 895.691 404.638 886 415.09C883.201 418.109 879.82 419.331 876.554 420.512C872.642 421.926 868.893 423.281 866.5 427.59C863.565 432.876 866.133 437.728 868.741 442.656C871.258 447.411 873.812 452.236 871.5 457.59C870.43 460.069 868.842 461.565 867.258 463.058C865.656 464.568 864.058 466.074 863 468.59C864 470.59 865 476.09 861.5 480.59C860.432 481.963 860.858 483.126 861.31 484.357C861.72 485.475 862.15 486.65 861.5 488.09C860.263 490.83 857.476 491.295 854.528 491.788C851.783 492.246 848.9 492.727 847 495.09C845.5 504.59 848 520.09 848 520.09C848 520.09 865.5 518.09 873 516.59C878.495 515.491 887.319 506.608 891.958 501.937C893.65 500.233 894.786 499.09 895 499.09C895.112 499.09 895.433 498.97 895.932 498.784C899.874 497.31 914.96 491.668 926.5 508.09C936.9 522.89 945.833 539.257 949 545.59C952 545.924 958.8 545.39 962 540.59C962.67 539.585 963.242 538.678 963.771 537.841C966.393 533.682 967.925 531.252 975 527.09C985.224 519.534 987.544 522.251 989.339 524.353C989.562 524.615 989.778 524.868 990 525.09C992 527.09 998.5 532.09 1001.5 534.09C1004.5 536.09 1014.5 545.59 1015.5 556.09C1016.3 564.49 1033.83 576.59 1042.5 581.59C1046.17 584.09 1053.5 589.49 1053.5 591.09C1053.5 592.04 1052.37 593.103 1051.29 594.118C1050.1 595.24 1048.97 596.303 1049.5 597.09C1050.06 597.931 1055.72 606.834 1060.96 615.071L1067 624.59C1067 624.59 1075 624.59 1079 626.09V646.59L1081.5 650.59C1081.5 650.59 1075.27 658.055 1071 662.59C1058.48 675.902 1035.5 693.09 1035.5 693.09C1035.5 693.09 1035.6 697.054 1035.5 699.59C1035.27 705.689 1033.5 715.09 1033.5 715.09C1033.5 715.09 1040.99 712.612 1044.5 715.09C1045.86 716.053 1046.27 717.346 1046.69 718.676C1047.06 719.854 1047.44 721.06 1048.5 722.09C1049.47 723.033 1050.48 723.434 1051.5 723.836C1052.51 724.239 1053.53 724.641 1054.5 725.59C1060.23 731.181 1054.5 746.09 1054.5 746.09C1054.5 746.09 1050 750.59 1047 759.59C1047 762.556 1047.59 765.48 1048.26 768.786C1048.94 772.168 1049.7 775.95 1050 780.59C1050 780.59 1047.21 785.16 1044.5 787.09C1038.48 785.405 1032.38 782.367 1027.5 779.93C1022.23 777.307 1018.36 775.38 1017.5 776.59C1016.07 777.202 1015.06 778.514 1014.09 779.771C1012.68 781.594 1011.37 783.3 1009 782.59C1007.87 782.251 1006.66 781.688 1005.39 781.093C1002.16 779.584 998.496 777.871 994.5 779.09C990.765 780.229 989 784.09 989 784.09C989 784.09 974.5 784.09 970.5 779.09C969.71 778.102 960.167 775.09 958 774.59C958 774.59 949 774.59 945 769.59C941 764.59 925.6 783.89 926 789.09C922.833 789.769 919.974 789.833 917.652 789.886C914.842 789.949 912.821 789.995 912 791.09C911.052 792.355 901 803.09 899 803.09C897 803.09 893 813.59 893 816.09C893 817.62 885.782 817.59 880.077 817.565C878.324 817.558 876.714 817.551 875.5 817.59C875 814.59 873.1 807.89 869.5 805.09C867.788 803.758 864.918 802.572 861.799 801.282C856.719 799.181 850.979 796.807 848.5 793.09C847.289 791.273 845.62 789.273 843.798 787.09C839.601 782.062 834.592 776.062 832.5 769.09C829.38 765.49 825.732 763.608 822.87 762.132C819.77 760.533 817.591 759.409 818 757.09C819.5 748.59 806 742.59 804 742.09C802.4 741.69 798.667 736.257 797 733.59C797 733.59 785.619 738.352 779 742.59C773.605 746.044 766 752.59 766 752.59C762 749.757 751.1 746.69 735.5 755.09C730.5 757.09 726 757.09 713 755.09C702.6 753.49 693 755.757 690 757.59C687 759.423 684.5 787.09 684.5 787.09L684.339 787.102C684.216 786.904 684.103 786.733 684 786.59C681.5 783.09 655 781.59 649.5 781.59C643.153 772.686 649.5 753.59 649.5 753.59C649.5 753.59 651.167 739.423 652.5 737.09C653.833 734.757 669 716.99 671 716.59C671.722 716.446 672.719 716.666 673.834 716.913C675.809 717.35 678.153 717.869 680 716.59C682.459 714.888 681.465 711.65 680.561 708.705C679.93 706.651 679.343 704.74 680 703.59C681.6 700.79 683.333 693.423 684 688.59C684.448 685.345 682.049 684.783 679.661 684.223C678.493 683.95 677.328 683.676 676.5 683.09C675.459 675.539 676.587 671.144 677.554 667.375C678.444 663.906 679.199 660.968 678 656.59C674.227 652.373 672.694 649.723 671.468 647.603C669.932 644.948 668.876 643.124 664.5 640.09C658.054 635.621 650.168 635.809 642.342 635.995C634.074 636.191 625.872 636.386 619.5 631.09C617.564 629.481 617.445 628.731 617.334 628.028C617.219 627.299 617.111 626.621 615 625.09C614.028 624.386 613.01 624.081 612.039 623.79C610.679 623.383 609.412 623.004 608.5 621.59C606.683 618.773 609.389 616.816 612.275 614.728C614.198 613.338 616.2 611.889 617 610.09C618.372 609.565 620.435 609.534 622.56 609.502C625.802 609.453 629.191 609.402 630.5 607.59C631.216 606.6 631.409 605.69 631.579 604.889C631.924 603.263 632.174 602.085 636.5 601.59C645.201 600.596 651.183 606.647 656.596 612.122C662.07 617.66 666.964 622.61 673.5 619.09C674.081 618.777 674.642 618.497 675.18 618.227C680.667 615.48 683.821 613.901 682 591.59C682 580.59 686 576.59 686 576.59L682.5 568.09C682.5 568.09 681.868 559.911 680 555.09C677.938 549.769 671.95 545.313 667.279 541.837C663.241 538.832 660.187 536.558 661.5 535.09C664.333 531.923 670.8 524.89 674 522.09C674.699 521.478 675.387 520.922 676.058 520.378C678.459 518.431 680.66 516.648 682.5 513.09C682.267 509.356 681.03 504.946 679.941 501.06C678.698 496.623 677.647 492.87 678.5 491.59C680.1 489.19 692 481.09 698 477.59L691.5 473.09C689.987 472.043 689.982 468.987 689.978 466.301C689.975 464.481 689.972 462.831 689.5 462.09C688.333 460.257 686 455.09 686 455.09C686 454.647 686.255 453.712 686.583 452.508C687.144 450.448 687.919 447.602 688 445.09C688.081 442.59 687.535 440.631 686.994 438.687C686.507 436.938 686.022 435.2 686 433.09C685.963 429.675 689.091 426.821 691.445 424.672C692.862 423.379 694 422.342 694 421.59C694 419.59 688 416.257 686 418.59C685.528 419.141 685.115 419.702 684.719 420.24C683.434 421.983 682.328 423.483 680 423.59C675.616 423.792 672.438 418.191 674 414.09C674.604 412.505 676.52 411.649 678.026 410.977C679.121 410.488 680 410.095 680 409.59C680 408.09 681.869 403.768 684 403.09C695 399.59 698 387.09 698 387.09C698 387.09 707.5 380.59 707.5 377.59C707.5 376.43 706.976 375.044 706.246 373.116C705.091 370.06 703.42 365.641 702.5 358.59C701.837 353.506 702.835 351.159 703.68 349.171C704.746 346.662 705.568 344.727 702.5 338.59C697 327.59 694 315.09 694 315.09C694 315.09 688.713 316.64 686 315.09C685.549 312.383 685.962 310.284 686.345 308.337C686.812 305.968 687.233 303.826 686 301.09C682.5 294.59 672.5 291.59 669.5 291.09C667.322 291.604 666.337 293.31 665.352 295.015C664.2 297.008 663.05 298.999 660 299.09C655.5 296.59 651.5 286.09 651.5 282.09C656.167 276.924 664.2 266.69 665 265.09C665.232 264.625 665.33 262.864 665.462 260.477C665.783 254.663 666.31 245.135 669.5 241.59C669.5 237.59 668.251 233.396 665 229.59C663.013 227.263 660.725 226.543 658.33 225.789C656.421 225.188 654.444 224.566 652.5 223.09C648.67 220.184 646.906 216.799 645.114 213.359C643.472 210.207 641.805 207.008 638.5 204.09C631.076 197.535 624.549 195.509 616.334 192.959C614.04 192.247 611.614 191.494 609 190.59C602.725 189.069 598.98 189.428 595.705 189.742C590.44 190.247 586.385 190.636 574.973 182.912L575 181.09Z" />
<path id="Vector 9" class="map-layer layer-3" fill-rule="evenodd" clip-rule="evenodd" d="M454.662 975.585C462.328 963.41 462.494 947.02 460.595 936.577C459.825 935.279 459.033 933.925 458.212 932.522C440.383 902.049 409.189 848.731 302.595 852.077C296.954 850.086 292.895 847.424 289.184 844.989C283.951 841.556 279.41 838.577 272.095 838.577C272.095 838.577 265.672 832.944 260.595 831.577C255.881 830.308 248.095 831.577 248.095 831.577C248.095 831.577 217.095 823.077 217.095 815.077C217.095 810.051 218.477 804.551 219.504 800.462C220.112 798.043 220.595 796.118 220.595 795.077C220.595 792.277 222.595 785.577 223.595 782.577V770.577C223.595 769.468 226.259 767.079 229.116 764.516C229.405 764.257 229.695 763.996 229.985 763.735C230.128 763.606 230.27 763.479 230.412 763.35C232.279 761.659 234.069 759.965 235.095 758.577C237.928 754.744 237.928 738.577 230.595 729.077C226.028 723.16 220.748 717.942 216.934 714.171C216.936 714.173 216.931 714.169 216.934 714.171C216.929 714.166 216.918 714.153 216.913 714.148C215.258 712.512 213.879 711.149 212.956 710.121C212.917 710.078 212.879 710.036 212.842 709.994C212.535 709.647 212.283 709.34 212.095 709.077C210.095 706.277 207.262 695.244 206.095 690.077C205.458 687.253 208.112 687.62 211.354 688.069C214.044 688.44 217.139 688.868 219.095 687.577C227.214 682.218 223.595 663.077 223.595 663.077C223.595 663.077 219.604 651.588 216.595 644.077C215.329 640.916 216.343 639.717 217.197 638.708C217.905 637.87 218.502 637.164 217.595 635.577C213.891 629.095 213.815 629.034 213.067 628.443C212.842 628.265 212.557 628.039 212.095 627.577C221.505 604.99 231.595 603.577 254.095 611.077C267.224 610.027 273.044 608.425 275.612 607.141L278.595 618.577L287.095 625.077C287.095 625.077 286.563 630.157 288.595 632.077C289.541 632.97 290.604 632.98 291.709 632.991C292.657 633 293.635 633.01 294.595 633.577C298.965 636.161 299.595 645.577 299.595 645.577C299.595 645.577 301.924 644.104 303.095 644.077C309.611 643.928 319.095 643.077 319.095 643.077C319.095 643.077 338.095 630.577 339.095 621.577H348.095C349.295 621.577 350.928 623.91 351.595 625.077H372.595C372.595 625.077 382.199 628.598 388.595 628.577C393.145 628.562 396.19 627.29 399.521 625.898C401.983 624.87 404.6 623.776 408.095 623.077C415.118 621.673 416.084 622.45 419.796 625.437L420.595 626.077C425.588 630.055 428.595 640.077 428.595 640.077C428.595 640.077 449.42 655.695 459.095 648.077C459.963 647.394 460.444 646.501 460.899 645.654C461.527 644.487 462.109 643.406 463.595 643.077C466.876 642.351 471.095 645.91 470.595 648.077C470.095 650.244 469.395 654.577 470.595 654.577C471.795 654.577 487.428 659.244 495.095 661.577C499.303 662.858 497.07 666.632 494.372 671.191C492.154 674.939 489.622 679.217 490.095 683.077C490.586 687.076 493.525 689.724 496.326 692.247C499.84 695.413 503.136 698.383 501.095 703.577C499.963 706.457 498.604 709.204 497.228 711.985C494.145 718.217 490.976 724.621 490.095 733.077C489.444 739.327 490.302 744.574 491.126 749.606C491.508 751.95 491.883 754.247 492.095 756.577L490.095 761.077C490.095 761.077 498.595 764.077 504.595 769.577C509.042 769.807 517.595 767.077 517.595 767.077C517.595 767.077 541.095 769.577 570.595 764.077C577.095 765.077 584.095 784.077 584.095 784.077L585.095 825.577C585.095 825.577 588.776 837.127 597.595 846.077C603.683 852.256 606.193 854.194 611.13 858.008C613.407 859.766 616.199 861.923 620.095 865.077C630.595 873.577 640.095 871.577 645.095 869.577C645.932 867.599 645.095 863.077 645.095 863.077C645.095 863.077 648.918 860.667 653.595 859.577C658.16 858.514 665.595 859.577 665.595 859.577L674.595 853.077C674.595 853.077 676.091 853.487 677.595 852.577C680.315 850.932 678.095 843.577 678.095 843.577C678.095 843.577 691.139 838.025 694.095 827.577C697.953 813.945 688.542 792.074 685.434 787.089C685.311 786.891 685.198 786.72 685.095 786.577C684.875 786.269 684.468 785.975 683.905 785.697L684.095 785.577C684.095 785.577 689.596 764.487 689.596 758.987C689.596 753.851 718.677 753.909 723.043 754.06C723.352 754.071 723.543 754.077 723.595 754.077C723.874 754.077 724.671 754.431 725.766 754.917C727.821 755.829 730.922 755.116 733.596 755.487C738.273 753.85 741.73 752.615 746.096 750.987C751.062 749.134 756.669 749.077 757.095 749.077C757.095 749.077 764.095 751.744 767.095 753.077C758.095 769.077 735.996 791.677 735.595 792.077C735.385 792.287 734.019 795.855 732.407 800.066C730.947 803.881 729.284 808.225 728.095 811.077C729.262 816.577 731.595 828.577 731.595 828.577C731.595 828.577 727.67 831.496 728.595 833.577C730.595 838.077 734.996 849.777 734.595 850.577C734.44 850.887 731.855 853.582 728.687 856.884C723.676 862.108 717.208 868.852 716.595 870.077C716.207 870.854 716.876 871.556 717.78 872.505C719.202 873.998 721.207 876.103 720.595 880.077C720.151 882.967 717.768 885.613 715.154 888.515C711.888 892.141 708.26 896.169 707.595 901.577C707.357 903.515 707.436 905.091 707.515 906.668C707.555 907.456 707.595 908.244 707.595 909.077C707.595 911.577 687.095 925.577 687.095 925.577C687.095 925.577 686.595 936.41 686.095 941.577C679.095 961.41 658.295 1000.58 631.095 998.577C625.541 998.169 617.384 997.894 607.496 997.561C565.595 996.148 492.596 993.687 454.662 975.585Z" />
<path id="Vector 9_2" class="map-layer layer-4" fill-rule="evenodd" clip-rule="evenodd" d="M223.5 770.59V782.59C222.5 785.59 220.5 792.29 220.5 795.09C220.5 796.131 220.017 798.056 219.409 800.475C218.382 804.564 217 810.064 217 815.09C217 823.09 248 831.59 248 831.59C248 831.59 255.786 830.321 260.5 831.59C265.577 832.957 272 838.59 272 838.59C279.314 838.59 283.855 841.569 289.089 845.003C292.8 847.437 296.858 850.099 302.5 852.09C409.094 848.744 440.288 902.062 458.117 932.535C458.938 933.938 459.729 935.292 460.5 936.59C462.398 947.033 462.232 963.423 454.566 975.598C448.773 984.798 438.7 991.59 422 991.59C373.5 991.59 359.5 991.59 326.5 1023.09C300.618 1047.8 246.132 1024.21 219.972 1012.89C212.777 1009.78 207.726 1007.59 206 1007.59C204.462 1007.59 199.982 1006.55 193.608 1005.08C166.841 998.891 106.653 984.975 90.5 1007.59C74.5 1029.99 42.167 1027.26 28 1023.09L0 991.59C0 991.59 5.79883 927.718 28 895.59C30.2715 892.304 31.9941 888.641 33.6475 885.126C37.5527 876.827 41.0703 869.351 50.5 869.59C56.1201 869.733 64 874.59 64 874.59C64 874.59 86.0713 873.883 90.5 863.59C95.2979 852.439 77 835.59 77 835.59C77 835.59 56.0693 824.161 55.5 811.59C54.707 794.094 94 788.59 94 788.59L107.5 760.59L124 741.09L137 705.59L133 693.09L135.5 663.09L123.5 656.59C123.5 656.59 116.168 663.391 110.5 663.09C99.7051 662.518 102.5 636.59 102.5 636.59L72 598.09H66.5C66.5 598.09 62.3262 606.868 57.5 606.59C51.3359 606.235 52.5 591.59 52.5 591.59L97.5 549.09L100 542.09L103 539.09L123 542.09C123 542.09 135.143 528.829 144.5 530.59C146.256 530.921 147.46 531.635 148.685 532.361C149.797 533.021 150.926 533.691 152.5 534.09C159.148 535.778 170 532.59 170 532.59L177 537.59C184.833 540.09 201.6 544.89 206 544.09C210.4 543.29 213.167 545.423 214 546.59C220.333 547.59 233.1 548.99 233.5 546.59C233.9 544.19 243.333 538.257 248 535.59C248 535.59 256.254 539.083 258 535.59C258.873 533.844 258 530.59 258 530.59C258 530.59 271.275 528.114 275 521.59C276.146 519.583 275.915 517.505 275.691 515.494C275.437 513.204 275.191 511.002 277 509.09C278.154 507.87 278.863 506.969 280.5 506.59C282.495 506.129 283.164 507.926 283.896 509.894C284.551 511.65 285.256 513.543 287 514.09C291.124 515.383 297.5 510.59 297.5 510.59H299H299.5L299.273 511.215L297.5 516.09L291.5 520.59V530.09L283.5 550.59V555.59L278.5 561.09L275.5 573.59V607.09L275.517 607.154C275.378 607.223 275.23 607.293 275.072 607.364C272.299 608.61 266.42 610.097 254 611.09C231.5 603.59 221.41 605.003 212 627.59C212.462 628.052 212.747 628.278 212.972 628.456C213.72 629.047 213.796 629.109 217.5 635.59C218.407 637.177 217.81 637.884 217.102 638.721C216.248 639.73 215.233 640.929 216.5 644.09C219.509 651.601 223.5 663.09 223.5 663.09C223.5 663.09 227.119 682.231 219 687.59C217.044 688.881 213.949 688.453 211.259 688.082C208.017 687.633 205.362 687.266 206 690.09C207.167 695.257 210 706.29 212 709.09L212.105 709.234C212.172 709.323 212.245 709.416 212.325 709.514L212.436 709.647C212.531 709.762 212.635 709.882 212.746 710.007L212.86 710.134C213.783 711.162 215.164 712.527 216.817 714.161L216.838 714.184C220.653 717.955 225.933 723.173 230.5 729.09C237.833 738.59 237.833 754.757 235 758.59C233.975 759.977 232.183 761.672 230.316 763.363L229.89 763.748L229.021 764.529C226.164 767.092 223.5 769.481 223.5 770.59Z" />
<path id="Vector 9_3" class="map-layer layer-5" fill-rule="evenodd" clip-rule="evenodd" d="M299.5 510.59H299C299 510.59 305.286 508.21 309.5 508.09C309.746 508.083 309.986 508.079 310.222 508.077C314.288 508.11 316.954 508.952 321 510.59C324.345 511.944 326.275 514.441 328.147 516.864C330.309 519.663 332.396 522.364 336.5 523.09C337.246 523.222 338.048 523.272 338.878 523.259C344.223 523.345 351 520.59 351 520.59L366 517.59L374.5 510.59L380.5 506.09L382 498.09L391.5 494.09L394.269 489.475L397.5 494.09H398H407H407.5L418.135 491.19L427.5 498.09L441.5 499.59L463.5 506.09L463.614 505.976L464 506.09L468 502.09L480 494.09C479.833 487.423 479.6 473.49 480 471.09C480.4 468.69 472.167 457.423 468 452.09L470.5 433.09L466 421.59C469 417.257 475.4 408.09 477 406.09C477 406.09 472.321 390.089 470.5 379.59C469.088 371.453 468 358.59 468 358.59L457.5 349.09L455.5 338.59C455.5 338.59 443.152 337.898 440.5 332.09C437.417 325.338 449 315.09 449 315.09C449 315.09 450.408 307.114 452.768 306.615C453.439 306.722 454.569 307.174 455.958 307.728V307.728V307.728V307.728C458.816 308.869 462.768 310.446 466.043 310.365C468.689 310.428 470.967 309.517 472 306.59C471.512 303.218 469.146 300.899 466.823 298.622V298.622C463.981 295.836 461.2 293.11 462 288.59C462.589 285.262 465.126 283.746 467.697 282.21V282.21C470.17 280.733 472.674 279.236 473.5 276.09C474.822 271.057 470.455 267.929 466.123 264.828C461.754 261.699 457.422 258.597 459 253.59C460.212 249.746 462.842 249.433 466.01 249.056C469.739 248.612 474.215 248.079 478 241.59C481.442 235.689 481.693 231.194 481.915 227.219C482.144 223.112 482.342 219.561 486 215.59C487.736 213.706 490.292 212.316 492.451 211.142C494.538 210.007 496.254 209.073 496.5 208.09C496.824 206.793 498.394 206.153 500.15 205.437V205.437C501.102 205.05 502.108 204.639 503 204.09C503 204.09 510.653 196.38 517 195.59C517.081 195.58 517.161 195.572 517.241 195.566C517.301 195.561 517.361 195.557 517.42 195.555C519.044 195.627 520.529 196.389 521.936 197.11C523.35 197.835 524.687 198.52 526.006 198.426C526.842 198.483 527.668 198.267 528.5 197.59C530.977 195.576 530.079 192.362 529.255 189.411C528.869 188.03 528.5 186.706 528.5 185.59C530.585 180.17 533.146 179.064 536.731 179.017C537.295 179.024 537.884 179.052 538.5 179.09C540.405 180.149 540.966 181.476 541.624 183.034C542.521 185.156 543.599 187.707 548.5 190.59C548.574 190.581 548.646 190.569 548.717 190.556C548.774 190.545 548.829 190.534 548.884 190.521C548.922 190.544 548.961 190.567 549 190.59C550.678 190.37 551.6 189.237 552.524 188.099C553.437 186.977 554.353 185.85 556 185.59C556.138 185.568 556.273 185.554 556.406 185.545C558.091 185.653 559.307 186.847 560.53 188.048V188.048C561.888 189.382 563.257 190.728 565.289 190.608C565.517 190.622 565.754 190.617 566 190.59C568.633 190.309 569.845 188.52 571.14 186.609V186.609C572.092 185.204 573.088 183.732 574.728 182.746L574.759 182.767L574.818 182.693C574.878 182.658 574.939 182.624 575 182.59L575.259 182.767L575.308 182.8C575.363 182.838 575.418 182.875 575.473 182.912C586.885 190.636 590.94 190.247 596.205 189.742C599.48 189.428 603.225 189.069 609.5 190.59C612.113 191.494 614.538 192.247 616.831 192.959V192.959V192.959C625.046 195.508 631.577 197.536 639 204.09C642.305 207.008 643.972 210.207 645.614 213.359C647.406 216.799 649.17 220.184 653 223.09C654.944 224.566 656.92 225.188 658.83 225.789V225.789C661.224 226.543 663.513 227.263 665.5 229.59C668.751 233.396 670 237.59 670 241.59C666.81 245.135 666.283 254.663 665.962 260.477C665.83 262.864 665.732 264.625 665.5 265.09C664.7 266.69 656.667 276.924 652 282.09C652 286.09 656 296.59 660.5 299.09C663.549 298.999 664.7 297.008 665.851 295.017V295.017V295.017C666.836 293.311 667.823 291.604 670 291.09C673 291.59 683 294.59 686.5 301.09C687.733 303.826 687.312 305.968 686.845 308.337V308.337C686.462 310.283 686.049 312.384 686.5 315.09C689.213 316.64 694.5 315.09 694.5 315.09C694.5 315.09 697.5 327.59 703 338.59C706.068 344.727 705.246 346.662 704.18 349.171V349.171C703.335 351.158 702.337 353.507 703 358.59C703.92 365.64 705.59 370.059 706.746 373.115V373.115V373.115V373.115C707.474 375.041 708 376.431 708 377.59C708 380.59 698.5 387.09 698.5 387.09C698.5 387.09 695.5 399.59 684.5 403.09C682.369 403.768 680.5 408.09 680.5 409.59C680.5 410.095 679.622 410.487 678.529 410.975V410.975C677.022 411.648 675.104 412.505 674.5 414.09C672.938 418.191 676.116 423.792 680.5 423.59C682.827 423.483 683.933 421.984 685.217 420.242V420.242C685.614 419.704 686.028 419.141 686.5 418.59C688.5 416.257 694.5 419.59 694.5 421.59C694.5 422.341 693.363 423.378 691.948 424.67V424.67V424.67V424.67C689.593 426.819 686.463 429.676 686.5 433.09C686.522 435.2 687.006 436.937 687.494 438.685V438.685L687.496 438.695C688.037 440.637 688.581 442.593 688.5 445.09C688.419 447.591 687.647 450.431 687.088 452.489V452.489L687.083 452.508C686.755 453.712 686.5 454.647 686.5 455.09C686.5 455.09 688.833 460.257 690 462.09C690.472 462.831 690.475 464.481 690.478 466.301V466.301C690.482 468.986 690.488 472.043 692 473.09L698.5 477.59C692.5 481.09 680.6 489.19 679 491.59C678.147 492.87 679.198 496.623 680.441 501.06V501.06C681.53 504.944 682.767 509.357 683 513.09C681.16 516.648 678.959 518.431 676.559 520.377V520.377L676.525 520.405C675.863 520.94 675.188 521.489 674.5 522.09C671.3 524.89 664.833 531.923 662 535.09C660.687 536.558 663.741 538.832 667.779 541.837V541.837C672.45 545.313 678.438 549.77 680.5 555.09C682.368 559.911 683 568.09 683 568.09L686.5 576.59C686.5 576.59 682.5 580.59 682.5 591.59C684.321 613.901 681.167 615.48 675.68 618.227V618.227C675.142 618.496 674.58 618.778 674 619.09C667.464 622.61 662.57 617.66 657.096 612.122C651.683 606.647 645.701 600.596 637 601.59C632.674 602.085 632.424 603.263 632.079 604.889C631.909 605.69 631.716 606.6 631 607.59C629.691 609.402 626.302 609.453 623.06 609.502C620.935 609.534 618.872 609.565 617.5 610.09C616.7 611.889 614.698 613.338 612.775 614.728C609.889 616.816 607.183 618.773 609 621.59C609.912 623.004 611.179 623.383 612.539 623.791C613.51 624.081 614.528 624.386 615.5 625.09C617.611 626.621 617.719 627.299 617.834 628.028C617.945 628.731 618.064 629.481 620 631.09C626.372 636.386 634.574 636.191 642.842 635.995C650.668 635.809 658.554 635.621 665 640.09C669.376 643.124 670.432 644.948 671.968 647.604V647.604C673.194 649.723 674.729 652.375 678.5 656.59C679.699 660.967 678.945 663.905 678.054 667.372V667.372V667.372V667.372C677.088 671.141 675.959 675.541 677 683.09C677.828 683.676 678.993 683.95 680.161 684.223V684.223C682.549 684.783 684.948 685.345 684.5 688.59C683.833 693.423 682.1 700.79 680.5 703.59C679.843 704.74 680.43 706.651 681.061 708.705C681.965 711.65 682.959 714.888 680.5 716.59C678.654 717.869 676.309 717.35 674.335 716.913V716.913C673.219 716.667 672.222 716.446 671.5 716.59C669.5 716.99 654.333 734.757 653 737.09C651.667 739.423 650 753.59 650 753.59C650 753.59 643.653 772.686 650 781.59C655.015 781.59 677.489 782.837 683.31 785.71C683.873 785.988 684.279 786.282 684.5 786.59C684.603 786.733 684.716 786.904 684.839 787.102C687.946 792.088 697.357 813.958 693.5 827.59C690.544 838.038 677.5 843.59 677.5 843.59C677.5 843.59 679.72 850.945 677 852.59C675.496 853.5 674 853.09 674 853.09L665 859.59C665 859.59 657.564 858.527 653 859.59C648.322 860.68 644.5 863.09 644.5 863.09C644.5 863.09 645.337 867.612 644.5 869.59C639.5 871.59 630 873.59 619.5 865.09C615.604 861.936 612.812 859.779 610.535 858.021L610.526 858.014C605.594 854.204 603.084 852.265 597 846.09C588.181 837.14 584.5 825.59 584.5 825.59L583.5 784.09C583.5 784.09 576.5 765.09 570 764.09C540.5 769.59 517 767.09 517 767.09C517 767.09 508.446 769.82 504 769.59C498 764.09 489.5 761.09 489.5 761.09L491.5 756.59C491.288 754.26 490.913 751.963 490.53 749.619C489.707 744.587 488.849 739.34 489.5 733.09C490.381 724.637 493.548 718.234 496.63 712.004V712.004L496.637 711.989C498.012 709.211 499.369 706.467 500.5 703.59C502.541 698.396 499.245 695.426 495.73 692.26C492.93 689.737 489.99 687.089 489.5 683.09C489.026 679.231 491.558 674.953 493.775 671.206V671.206C496.474 666.647 498.708 662.871 494.5 661.59C486.833 659.257 471.2 654.59 470 654.59C468.8 654.59 469.5 650.257 470 648.09C470.5 645.923 466.28 642.364 463 643.09C461.514 643.419 460.932 644.5 460.304 645.667C459.849 646.514 459.368 647.407 458.5 648.09C448.825 655.708 428 640.09 428 640.09C428 640.09 424.993 630.068 420 626.09C419.719 625.867 419.454 625.653 419.201 625.45C415.488 622.463 414.522 621.686 407.5 623.09C404.006 623.789 401.389 624.882 398.928 625.911V625.911V625.911V625.911C395.598 627.302 392.549 628.575 388 628.59C381.604 628.611 372 625.09 372 625.09H351C350.333 623.923 348.7 621.59 347.5 621.59H338.5C337.5 630.59 318.5 643.09 318.5 643.09C318.5 643.09 309.016 643.941 302.5 644.09C301.329 644.117 299 645.59 299 645.59C299 645.59 298.37 636.174 294 633.59C293.04 633.023 292.062 633.013 291.113 633.004C290.009 632.993 288.945 632.983 288 632.09C285.968 630.171 286.5 625.09 286.5 625.09L278 618.59L275.072 607.364C275.23 607.293 275.378 607.223 275.517 607.154L275.5 607.09V573.59L278.5 561.09L283.5 555.59V550.59L291.5 530.09V520.59L297.5 516.09L299.273 511.215L299.5 510.59Z" />
</g>
<script type="application/ecmascript"><![CDATA[(function(){const svg=document.documentElement;const layers=Array.from(svg.querySelectorAll(".map-layer"));if(!layers.length){return;}const clear=()=>{svg.classList.remove("has-active");layers.forEach((node)=>node.classList.remove("is-active"));};const activate=(target)=>{svg.classList.add("has-active");layers.forEach((node)=>node.classList.toggle("is-active",node===target));target.parentElement&&target.parentElement.appendChild(target);};layers.forEach((node)=>{node.addEventListener("pointerenter",()=>activate(node));node.addEventListener("pointerleave",clear);});svg.addEventListener("pointerleave",clear);})();]]></script></svg>
