<svg preserveAspectRatio="xMidYMid meet" viewBox="0 0 461.51 527.44" fill="none" xmlns="http://www.w3.org/2000/svg"><style>.vector-layer{fill:#E8ECE9;transition:fill 450ms ease,filter 450ms ease,opacity 450ms ease;cursor:pointer;} svg:hover .vector-layer{fill:#CBECDF;} svg:has(.vector-layer:hover) .vector-layer:not(:hover){opacity:.45;filter:saturate(.72);} .vector-layer:hover{opacity:1;fill:#35C89F;filter:drop-shadow(0 0 10px rgba(53,200,159,.5));}</style>
<path class="vector-layer" id="Vector 9" fill-rule="evenodd" clip-rule="evenodd" d="M223.5 264.073V276.073C222.5 279.073 220.5 285.773 220.5 288.573C220.5 289.614 220.017 291.539 219.409 293.958C218.382 298.047 217 303.547 217 308.573C217 316.573 248 325.073 248 325.073C248 325.073 255.786 323.804 260.5 325.073C265.577 326.44 272 332.073 272 332.073C279.314 332.073 283.855 335.052 289.089 338.485C292.8 340.92 296.858 343.582 302.5 345.573C409.094 342.227 440.288 395.545 458.117 426.018C458.938 427.421 459.729 428.775 460.5 430.073C462.398 440.516 462.232 456.906 454.566 469.081C448.773 478.281 438.7 485.073 422 485.073C373.5 485.073 359.5 485.073 326.5 516.573C300.618 541.279 246.132 517.696 219.972 506.373C212.777 503.26 207.726 501.073 206 501.073C204.462 501.073 199.982 500.037 193.608 498.564C166.841 492.374 106.653 478.458 90.5 501.073C74.5 523.473 42.167 520.74 28 516.573L0 485.073C0 485.073 5.79883 421.201 28 389.073C30.2715 385.786 31.9941 382.124 33.6475 378.609C37.5527 370.31 41.0703 362.834 50.5 363.073C56.1201 363.215 64 368.073 64 368.073C64 368.073 86.0713 367.366 90.5 357.073C95.2979 345.922 77 329.073 77 329.073C77 329.073 56.0693 317.644 55.5 305.073C54.707 287.577 94 282.073 94 282.073L107.5 254.073L124 234.573L137 199.073L133 186.573L135.5 156.573L123.5 150.073C123.5 150.073 116.168 156.873 110.5 156.573C99.7051 156.001 102.5 130.073 102.5 130.073L72 91.5731H66.5C66.5 91.5731 62.3262 100.351 57.5 100.073C51.3359 99.718 52.5 85.0731 52.5 85.0731L97.5 42.5731L100 35.5731L103 32.5731L123 35.5731C123 35.5731 135.143 22.3116 144.5 24.0731C146.256 24.4035 147.46 25.1179 148.685 25.8438C149.797 26.5039 150.926 27.1734 152.5 27.5731C159.148 29.2609 170 26.0731 170 26.0731L177 31.0731C184.833 33.5731 201.6 38.373 206 37.5731C210.4 36.773 213.167 38.9063 214 40.0731C220.333 41.0731 233.1 42.4731 233.5 40.0731C233.9 37.6731 243.333 31.7397 248 29.0731C248 29.0731 256.254 32.566 258 29.0731C258.873 27.3266 258 24.0731 258 24.0731C258 24.0731 271.275 21.5965 275 15.0731C276.146 13.0656 275.915 10.9876 275.691 8.97677C275.437 6.68734 275.191 4.48495 277 2.57308C278.154 1.35299 278.863 0.451379 280.5 0.0730826C282.495 -0.388221 283.164 1.40841 283.896 3.37655C284.551 5.13302 285.256 7.02621 287 7.57308C291.124 8.8663 297.5 4.07308 297.5 4.07308H299H299.5L299.273 4.69747L297.5 9.57308L291.5 14.0731V23.5731L283.5 44.0731V49.0731L278.5 54.5731L275.5 67.0731V100.573L275.517 100.637C275.378 100.706 275.23 100.776 275.072 100.847C272.299 102.092 266.42 103.58 254 104.573C231.5 97.0731 221.41 98.4859 212 121.073C212.462 121.535 212.747 121.761 212.972 121.939C213.72 122.53 213.796 122.591 217.5 129.073C218.407 130.66 217.81 131.366 217.102 132.204C216.248 133.213 215.233 134.412 216.5 137.573C219.509 145.084 223.5 156.573 223.5 156.573C223.5 156.573 227.119 175.714 219 181.073C217.044 182.364 213.949 181.936 211.259 181.565C208.017 181.116 205.362 180.749 206 183.573C207.167 188.74 210 199.773 212 202.573L212.105 202.717C212.172 202.806 212.245 202.899 212.325 202.997L212.436 203.13C212.531 203.245 212.635 203.365 212.746 203.49L212.86 203.617C213.783 204.645 215.164 206.01 216.817 207.644L216.838 207.667C220.653 211.438 225.933 216.656 230.5 222.573C237.833 232.073 237.833 248.24 235 252.073C233.975 253.46 232.183 255.155 230.316 256.846L229.89 257.231L229.021 258.012C226.164 260.575 223.5 262.964 223.5 264.073Z"/>
</svg>
