<svg preserveAspectRatio="xMidYMid meet" viewBox="0 0 561.095 391.651" fill="none" xmlns="http://www.w3.org/2000/svg"><style>.vector-layer{fill:#EFEEE8;transition:fill 450ms ease,filter 450ms ease,opacity 450ms ease;cursor:pointer;} svg:hover .vector-layer{fill:#D4F1E6;} svg:has(.vector-layer:hover) .vector-layer:not(:hover){opacity:.45;filter:saturate(.72);} .vector-layer:hover{opacity:1;fill:#55D4B1;filter:drop-shadow(0 0 10px rgba(85,212,177,.5));}</style>
<path class="vector-layer" id="Vector 9" fill-rule="evenodd" clip-rule="evenodd" d="M248.662 368.585C256.328 356.41 256.494 340.02 254.595 329.577C253.825 328.279 253.033 326.925 252.212 325.522C234.383 295.049 203.189 241.731 96.5953 245.077C90.9537 243.086 86.8951 240.424 83.1841 237.989C77.9507 234.556 73.4097 231.577 66.0953 231.577C66.0953 231.577 59.6724 225.944 54.5953 224.577C49.8814 223.308 42.0953 224.577 42.0953 224.577C42.0953 224.577 11.0953 216.077 11.0953 208.077C11.0953 203.051 12.4771 197.551 13.5044 193.462C14.1119 191.043 14.5953 189.118 14.5953 188.077C14.5953 185.277 16.5953 178.577 17.5953 175.577V163.577C17.5953 162.468 20.2593 160.079 23.1158 157.516C23.4046 157.257 23.6951 156.996 23.9854 156.735C24.1277 156.606 24.2704 156.479 24.4121 156.35C26.279 154.659 28.0693 152.965 29.0953 151.577C31.9283 147.744 31.9283 131.577 24.5953 122.077C20.0277 116.16 14.7485 110.942 10.9336 107.171C10.9359 107.173 10.9313 107.169 10.9336 107.171C10.9286 107.166 10.918 107.153 10.9131 107.148C9.25806 105.512 7.8794 104.149 6.95605 103.121C6.91727 103.078 6.87896 103.036 6.8418 102.994C6.53467 102.647 6.2833 102.34 6.09526 102.077C4.09526 99.2771 1.26226 88.2439 0.0952629 83.0771C-0.542432 80.2532 2.11186 80.6201 5.35405 81.0686C8.04448 81.4404 11.1392 81.8684 13.0953 80.5771C21.2144 75.2182 17.5953 56.0771 17.5953 56.0771C17.5953 56.0771 13.6041 44.5877 10.5953 37.0771C9.32866 33.9161 10.3433 32.7169 11.1968 31.7076C11.9048 30.8705 12.5025 30.164 11.5953 28.5771C7.89116 22.0954 7.81499 22.0343 7.06694 21.4426C6.84233 21.2649 6.55718 21.0392 6.09526 20.5771C15.5054 -2.01003 25.5953 -3.42287 48.0953 4.07713C61.2242 3.02684 67.0445 1.42503 69.6119 0.140605L72.5953 11.5771L81.0953 18.0771C81.0953 18.0771 80.563 23.1575 82.5953 25.0771C83.5406 25.9696 84.604 25.9798 85.7085 25.9906C86.6568 25.9999 87.6353 26.0095 88.5953 26.5771C92.9654 29.1606 93.5953 38.5771 93.5953 38.5771C93.5953 38.5771 95.9244 37.1039 97.0953 37.0771C103.611 36.9282 113.095 36.0771 113.095 36.0771C113.095 36.0771 132.095 23.5771 133.095 14.5771H142.095C143.295 14.5771 144.928 16.9104 145.595 18.0771H166.595C166.595 18.0771 176.199 21.598 182.595 21.5771C187.145 21.5622 190.19 20.2898 193.521 18.8982C195.983 17.8697 198.6 16.7762 202.095 16.0771C209.118 14.6726 210.084 15.4497 213.796 18.437L214.595 19.0771C219.588 23.0552 222.595 33.0771 222.595 33.0771C222.595 33.0771 243.42 48.6946 253.095 41.0771C253.963 40.3938 254.444 39.5013 254.899 38.6543C255.527 37.4869 256.109 36.4059 257.595 36.0771C260.876 35.3514 265.095 38.9104 264.595 41.0771C264.095 43.2438 263.395 47.5771 264.595 47.5771C265.795 47.5771 281.428 52.2438 289.095 54.5771C293.303 55.8578 291.07 59.6317 288.372 64.191C286.154 67.9387 283.622 72.217 284.095 76.0771C284.586 80.0759 287.525 82.7241 290.326 85.2468C293.84 88.4133 297.136 91.3825 295.095 96.5771C293.963 99.457 292.604 102.204 291.228 104.985C288.145 111.217 284.976 117.621 284.095 126.077C283.444 132.327 284.302 137.574 285.126 142.606C285.508 144.95 285.883 147.247 286.095 149.577L284.095 154.077C284.095 154.077 292.595 157.077 298.595 162.577C303.042 162.807 311.595 160.077 311.595 160.077C311.595 160.077 335.095 162.577 364.595 157.077C371.095 158.077 378.095 177.077 378.095 177.077L379.095 218.577C379.095 218.577 382.776 230.127 391.595 239.077C397.683 245.256 400.193 247.194 405.13 251.008C407.407 252.766 410.199 254.923 414.095 258.077C424.595 266.577 434.095 264.577 439.095 262.577C439.932 260.599 439.095 256.077 439.095 256.077C439.095 256.077 442.918 253.667 447.595 252.577C452.16 251.514 459.595 252.577 459.595 252.577L468.595 246.077C468.595 246.077 470.091 246.487 471.595 245.577C474.315 243.932 472.095 236.577 472.095 236.577C472.095 236.577 485.139 231.025 488.095 220.577C491.953 206.945 482.542 185.074 479.434 180.089C479.311 179.891 479.198 179.72 479.095 179.577C478.875 179.269 478.468 178.975 477.905 178.697L478.095 178.577C478.095 178.577 483.596 157.487 483.596 151.987C483.596 146.851 512.677 146.909 517.043 147.06C517.352 147.071 517.543 147.077 517.595 147.077C517.874 147.077 518.671 147.431 519.766 147.917C521.821 148.829 524.922 148.116 527.596 148.487C532.273 146.85 535.73 145.615 540.096 143.987C545.062 142.134 550.669 142.077 551.095 142.077C551.095 142.077 558.095 144.744 561.095 146.077C552.095 162.077 529.996 184.677 529.595 185.077C529.385 185.287 528.019 188.855 526.407 193.066C524.947 196.881 523.284 201.225 522.095 204.077C523.262 209.577 525.595 221.577 525.595 221.577C525.595 221.577 521.67 224.496 522.595 226.577C524.595 231.077 528.996 242.777 528.595 243.577C528.44 243.887 525.855 246.582 522.687 249.884C517.676 255.108 511.208 261.852 510.595 263.077C510.207 263.854 510.876 264.556 511.78 265.505C513.202 266.998 515.207 269.103 514.595 273.077C514.151 275.967 511.768 278.613 509.154 281.515C505.888 285.141 502.26 289.169 501.595 294.577C501.357 296.515 501.436 298.091 501.515 299.668C501.555 300.456 501.595 301.244 501.595 302.077C501.595 304.577 481.095 318.577 481.095 318.577C481.095 318.577 480.595 329.41 480.095 334.577C473.095 354.41 452.295 393.577 425.095 391.577C419.541 391.169 411.384 390.894 401.496 390.561C359.595 389.148 286.596 386.687 248.662 368.585Z"/>
</svg>
